<?xml version="1.0" standalone="no"?>
<!DOCTYPE svg PUBLIC "-//W3C//DTD SVG 20010904//EN"
 "http://www.w3.org/TR/2001/REC-SVG-20010904/DTD/svg10.dtd">
<svg version="1.0" xmlns="http://www.w3.org/2000/svg"
 width="16.000000pt" height="16.000000pt" viewBox="0 0 16.000000 16.000000"
 preserveAspectRatio="xMidYMid meet">
<metadata>
Created by potrace 1.11, written by Peter Selinger 2001-2013
</metadata>
<g transform="translate(0.000000,16.000000) scale(0.003125,-0.003125)"
fill="#000000" stroke="none">
<path d="M2392 4932 c-72 -8 -81 -16 -112 -100 -21 -55 -54 -181 -64 -242 l-6
-36 -87 -17 c-107 -22 -249 -67 -355 -113 l-81 -34 -46 43 c-102 95 -224 177
-263 177 -31 0 -115 -51 -248 -150 -137 -102 -145 -112 -143 -164 2 -50 45
-190 83 -269 l29 -58 -83 -99 c-81 -97 -168 -221 -216 -308 -17 -31 -28 -41
-40 -36 -8 3 -83 9 -167 12 -187 6 -203 1 -232 -71 -45 -114 -79 -216 -101
-305 -23 -93 -23 -94 -3 -120 28 -38 146 -126 226 -168 l68 -36 -8 -81 c-9
-98 -9 -354 1 -418 l7 -46 -85 -48 c-99 -55 -194 -129 -215 -167 -19 -33 -7
-97 46 -263 53 -166 77 -213 108 -221 39 -10 198 -10 286 -1 l77 8 48 -83 c55
-94 144 -216 220 -303 l53 -61 -30 -62 c-45 -95 -81 -212 -83 -266 l-1 -49 75
-64 c109 -92 278 -203 310 -203 34 0 164 85 244 161 l62 58 122 -50 c67 -27
184 -65 258 -85 75 -19 141 -37 145 -40 5 -3 9 -17 9 -32 0 -37 33 -163 62
-242 39 -101 37 -100 285 -102 179 -1 216 2 237 15 30 20 80 145 107 271 11
50 21 91 22 92 1 1 38 9 82 19 107 23 251 69 353 112 l83 36 42 -40 c108 -102
226 -183 267 -183 54 0 371 229 389 281 13 38 -17 161 -69 281 l-38 87 60 68
c73 83 160 203 218 301 37 63 46 73 64 67 12 -4 90 -9 173 -12 128 -5 157 -3
177 10 29 19 71 118 121 282 48 160 49 185 5 231 -37 38 -172 131 -230 159
l-35 16 2 276 1 276 49 26 c135 74 253 171 253 209 0 53 -69 289 -119 405 -15
34 -27 48 -48 54 -35 10 -240 10 -310 1 l-52 -7 -52 87 c-63 105 -111 171
-200 279 l-69 81 41 86 c22 47 50 124 62 171 20 78 21 88 7 112 -35 63 -330
273 -383 273 -38 0 -161 -80 -251 -163 l-58 -55 -87 38 c-106 46 -249 92 -356
115 l-80 17 -19 97 c-23 122 -70 247 -101 267 -26 17 -303 27 -413 16z"/>
</g>
</svg>
